<?xml version="1.0" encoding="UTF-8" standalone="no"?>
<!-- Created with Inkscape (http://www.inkscape.org/) -->

<svg
   width="15mm"
   height="15mm"
   viewBox="0 0 15 15"
   version="1.1"
   id="svg1353"
   inkscape:version="1.1.2 (b8e25be833, 2022-02-05)"
   sodipodi:docname="schalterAn.svg"
   xmlns:inkscape="http://www.inkscape.org/namespaces/inkscape"
   xmlns:sodipodi="http://sodipodi.sourceforge.net/DTD/sodipodi-0.dtd"
   xmlns="http://www.w3.org/2000/svg"
   xmlns:svg="http://www.w3.org/2000/svg">
  <sodipodi:namedview
     id="namedview1355"
     pagecolor="#505050"
     bordercolor="#eeeeee"
     borderopacity="1"
     inkscape:pageshadow="0"
     inkscape:pageopacity="0"
     inkscape:pagecheckerboard="0"
     inkscape:document-units="mm"
     showgrid="false"
     inkscape:zoom="9.179349"
     inkscape:cx="18.628772"
     inkscape:cy="24.783893"
     inkscape:window-width="1920"
     inkscape:window-height="1000"
     inkscape:window-x="-11"
     inkscape:window-y="35"
     inkscape:window-maximized="1"
     inkscape:current-layer="layer1" />
  <defs
     id="defs1350" />
  <g
     inkscape:label="Ebene 1"
     inkscape:groupmode="layer"
     id="layer1">
    <path
       style="fill:#000000;stroke-width:0.0312714"
       d="m 11.610727,14.051331 c -0.169554,8.87e-4 -0.514891,-0.06034 -3.1583817,-0.0529 -2.4982824,0.0086 -4.4316402,-0.0019 -4.6125321,-0.05291 C 3.6588783,13.892901 3.1488147,13.783375 3.1386398,12.918079 3.1289198,12.052038 3.1643768,11.69809 3.1092418,10.781977 3.0139558,9.2061533 3.0079217,8.8999343 3.0489298,7.7642513 c 0.054278,-1.502557 0.0475,-2.594 -0.019732,-3.4554641 C 2.9990566,3.9220665 2.9643681,3.2251798 2.9538157,2.7608175 2.9423768,2.2376306 2.9221586,1.9181421 2.9025408,1.9198579 L 2.6039311,1.1893695 c 0.028655,-0.067775 0.06483,-0.1469899 0.081359,-0.1635764 0.017444,-0.014299 0.3957804,-0.0451839 0.8425468,-0.06034 0.4467435,-0.014299 1.0796095,-0.045184 1.4063904,-0.06034 0.3268009,-0.014299 1.494773,-0.045184 2.595536,-0.06034 1.742434,-0.022878 2.085198,-0.022878 2.6493247,0.014299 0.356356,0.022878 0.926311,0.052905 1.266501,0.052905 0.526204,8.57e-5 0.63491,0.00858 0.728015,0.052905 0.278165,0.13869665 0.36947,0.65287535 0.412215,2.32184005 0.01744,0.6619122 0.02345,1.4924624 0.01287,1.8451241 -0.02717,0.98855 -0.113389,2.914604 -0.132606,2.94566 -0.0097,0.0143 -0.03014,0.78388 -0.04598,1.7072 -0.01516,0.9237197 -0.04221,1.9820757 -0.0588,2.3518667 -0.02488,0.562395 -0.02259,0.726715 0.01887,1.003307 l 0.04902,0.330956 c 0,0 0.0294,0.176446 -0.09589,0.309852 -0.125285,0.133549 -0.553188,0.274533 -0.722884,0.274533 z M 9.3905213,13.502493 c 0.300943,-0.0143 0.9512937,-0.03775 1.4451767,-0.03775 0.761648,-0.0029 0.905232,-0.0086 0.945963,-0.0529 0.05805,-0.06034 0.09603,-1.008968 0.142414,-3.5168057 0.01745,-0.877278 0.03695,-1.658212 0.04598,-1.735625 0.02116,-0.175015 0.105095,-1.888306 0.129288,-2.626801 0.03166,-0.9937551 -0.0787,-3.6758636 -0.163376,-3.9479951 -0.03017,-0.098089 -0.120538,-0.115247 -0.688963,-0.1341211 -0.307503,-0.00858 -0.749045,-0.037748 -0.981229,-0.06034 -0.4878287,-0.052905 -4.2425088,-0.06034 -4.8939716,-0.014299 -0.2063292,0.014299 -0.7529658,0.037748 -1.2146657,0.052905 l -0.8394354,0.014299 0.017444,0.077784 c 0.00972,0.045184 0.031657,0.3498017 0.051275,0.6762108 0.018874,0.3271813 0.070864,1.1007944 0.1156473,1.7199536 0.081331,1.1186678 0.081331,1.1341388 0.04221,2.4610808 -0.044469,1.488144 -0.025738,3.17441 0.048243,4.4967757 0.025738,0.456069 0.048987,1.211523 0.052762,1.679547 0.00572,0.802038 0.00972,0.853085 0.066346,0.895151 0.085649,0.06034 0.804215,0.09351 1.6387632,0.06778 0.3724879,-0.0086 0.9164564,-0.0057 1.2088145,0.0086 0.607543,0.03775 2.023562,0.0143 2.830082,-0.03775 z m -2.017079,-2.955757 c -0.2055,-0.0143 -0.9303805,-0.136409 -1.0400081,-0.171012 -0.1633761,-0.0529 -0.175816,-0.104666 -0.1810779,-0.7925437 -0.00744,-0.934216 -0.040694,-3.501134 -0.052018,-4.012997 -0.00572,-0.251083 0.00372,-0.456097 0.018874,-0.465906 0.042982,-0.02288 1.09649,-0.0086 1.911515,0.02288 0.76268,0.03775 0.903262,0.06034 0.949972,0.189886 0.01516,0.04518 0.01887,0.353576 0.0097,0.699603 -0.01744,0.681501 0.01516,0.976997 0.169782,1.576853 0.166522,0.644553 0.15597,0.621962 0.406033,0.860863 0.259406,0.247366 0.264296,0.263953 0.179419,0.607606 -0.06105,0.247938 -0.176617,0.509603 -0.351606,0.800323 -0.07161,0.119251 -0.13924,0.2705297 -0.149793,0.3369617 -0.03618,0.227062 -0.0686,0.241932 -0.558541,0.275105 -0.240332,0.0143 -0.521454,0.04518 -0.624659,0.06034 -0.186654,0.02288 -0.448854,0.03775 -0.687907,0.0143 z m 1.044149,-0.493046 c 0.127172,-0.02288 0.260835,-0.06778 0.297174,-0.0898 0.03618,-0.02288 0.169839,-0.244221 0.296422,-0.489242 0.201496,-0.389008 0.226004,-0.453838 0.19592,-0.520184 -0.03091,-0.06778 -0.05353,-0.07779 -0.23038,-0.07779 -0.107869,-4.57e-4 -0.259491,-0.0143 -0.33683,-0.03775 -0.101692,-0.02288 -0.210104,-0.02288 -0.390881,0.0057 -0.496723,0.0775 -0.460087,0.06034 -0.555902,0.247938 -0.240875,0.475687 -0.445237,0.750849 -0.678107,0.9145117 -0.04221,0.02288 -0.06105,0.06034 -0.04673,0.08751 0.03166,0.05291 1.136641,0.0143 1.449481,-0.04518 z M 6.8500553,9.5282443 c 0.228263,-0.356579 0.288881,-0.480948 0.288881,-0.591791 0,-0.06778 -0.0839,-0.284829 -0.249769,-0.63097 -0.137267,-0.286488 -0.257976,-0.520928 -0.26807,-0.520928 -0.01887,0 0.01287,1.833571 0.03469,1.899745 0.02345,0.0775 0.07012,0.03775 0.194433,-0.156713 z m 1.37777,-1.038595 c 0.239588,-0.03775 0.364498,-0.04518 0.484664,-0.0143 0.258719,0.0529 0.274333,0.0086 0.13924,-0.346799 -0.154082,-0.405567 -0.195177,-0.561622 -0.303961,-1.151069 -0.07086,-0.385977 -0.09529,-0.608378 -0.09529,-0.882797 -1.28e-4,-0.346027 -0.0037,-0.368647 -0.07086,-0.410085 -0.06331,-0.03775 -1.034068,-0.154711 -1.335569,-0.159001 -0.165693,-0.0029 -0.188084,0.06778 -0.187941,0.624221 2.57e-4,0.732004 0.07161,1.102225 0.343087,1.782896 0.192088,0.480978 0.204527,0.502083 0.359519,0.580468 0.133749,0.06778 0.118278,0.06778 0.666722,-0.0143 z"
       id="path997-9-1"
       sodipodi:nodetypes="cczzccscccsccccscscsccsczzccccssccccscccssscccccccccscccccsssccccccssssccsscccscsscsscccscscsssccc" />
  </g>
</svg>
